<?xml version="1.0" standalone="no"?>
<!DOCTYPE svg PUBLIC "-//W3C//DTD SVG 20010904//EN"
 "http://www.w3.org/TR/2001/REC-SVG-20010904/DTD/svg10.dtd">
<svg version="1.0" xmlns="http://www.w3.org/2000/svg"
 width="900.000000pt" height="900.000000pt" viewBox="0 0 900.000000 900.000000"
 preserveAspectRatio="xMidYMid meet">
<metadata>
Created by potrace 1.11, written by Peter Selinger 2001-2013
</metadata>
<g transform="translate(0.000000,900.000000) scale(0.100000,-0.100000)"
fill="#000000" stroke="none">
<path d="M4165 8929 c-450 -38 -846 -126 -1254 -278 -242 -91 -399 -227 -501
-437 -61 -124 -82 -216 -83 -364 0 -145 23 -254 76 -360 37 -75 395 -572 407
-565 4 2 10 27 13 55 9 74 63 176 128 241 120 120 522 278 912 359 665 136
1385 51 1985 -235 103 -50 145 -76 192 -121 70 -66 115 -150 133 -242 6 -34
15 -61 19 -60 3 2 91 120 194 263 204 282 241 349 270 494 22 111 15 294 -15
399 -70 242 -259 453 -493 549 -292 120 -709 228 -1053 273 -288 38 -678 50
-930 29z"/>
<path d="M1540 7593 c-127 -21 -246 -72 -368 -156 -87 -60 -129 -105 -260
-280 -446 -597 -729 -1252 -851 -1972 -47 -278 -55 -386 -56 -740 0 -321 1
-344 22 -422 69 -250 228 -445 453 -555 92 -45 169 -66 283 -78 152 -15 218
-2 553 106 167 54 304 101 304 104 0 3 -19 13 -41 23 -59 28 -133 90 -169 142
-69 101 -93 208 -109 505 -47 821 234 1641 780 2274 124 145 177 191 269 235
73 35 78 36 193 36 64 0 117 1 117 3 0 13 -355 490 -399 536 -106 111 -267
198 -423 230 -71 15 -235 20 -298 9z"/>
<path d="M7155 7584 c-152 -33 -325 -125 -421 -226 -31 -33 -362 -478 -396
-533 -4 -6 37 -10 116 -10 121 0 123 0 198 -38 91 -44 188 -138 338 -324 400
-495 643 -1096 700 -1733 20 -230 8 -600 -26 -765 -28 -141 -114 -261 -228
-321 -31 -16 -56 -31 -56 -35 0 -3 135 -49 300 -103 338 -109 404 -122 557
-106 364 38 666 309 736 660 34 169 30 599 -8 924 -44 367 -141 758 -271 1087
-159 405 -349 747 -597 1078 -179 239 -289 335 -460 401 -154 60 -329 76 -482
44z"/>
<path d="M4227 7429 c-352 -31 -753 -146 -1069 -306 -151 -76 -208 -130 -234
-221 -42 -143 16 -282 150 -362 58 -35 186 -41 243 -12 124 64 166 214 91 327
-34 52 -74 79 -140 95 -75 19 -69 27 82 93 705 309 1500 321 2210 35 149 -60
220 -95 220 -107 0 -5 -24 -15 -54 -21 -194 -40 -239 -298 -72 -409 32 -21 54
-27 117 -30 66 -3 86 1 131 21 199 92 246 365 86 503 -46 39 -255 144 -393
198 -269 105 -551 171 -835 197 -130 11 -401 11 -533 -1z"/>
<path d="M4380 7034 c-174 -46 -308 -180 -351 -348 -6 -25 -13 -46 -14 -46
-26 0 -211 -58 -253 -79 -101 -51 -197 -161 -244 -280 -18 -46 -22 -76 -22
-166 0 -72 5 -124 15 -150 13 -35 87 -143 219 -320 20 -27 140 -192 265 -365
125 -173 231 -319 236 -324 5 -6 37 0 79 15 l70 24 0 290 c0 168 4 306 10 327
14 48 52 78 101 78 51 0 82 -16 105 -53 17 -29 19 -57 22 -337 l3 -306 65 -22
c36 -13 69 -20 73 -17 23 13 719 984 725 1010 35 143 25 252 -34 371 -70 144
-196 238 -370 279 -99 23 -106 28 -115 72 -19 104 -137 253 -241 306 -109 55
-235 70 -344 41z"/>
<path d="M2563 6691 c-59 -15 -118 -59 -218 -162 -208 -215 -391 -472 -526
-740 -165 -328 -275 -711 -309 -1074 -30 -326 9 -808 74 -919 79 -134 254
-186 394 -116 176 88 225 288 101 412 -105 105 -270 84 -349 -43 -17 -28 -35
-48 -39 -43 -30 32 -44 526 -21 734 14 135 62 373 100 503 105 351 281 689
509 975 90 113 189 222 202 222 5 0 9 -33 9 -73 0 -64 4 -79 30 -120 17 -27
50 -60 77 -77 39 -25 57 -30 110 -30 146 0 233 98 233 260 0 116 -71 225 -177
272 -48 21 -152 31 -200 19z"/>
<path d="M6285 6691 c-51 -13 -108 -48 -146 -88 -168 -176 -79 -463 144 -463
141 0 245 122 222 260 -5 30 -3 40 7 40 7 0 52 -44 100 -97 383 -431 613 -925
705 -1513 32 -208 21 -786 -16 -823 -6 -6 -16 5 -30 31 -79 155 -304 161 -391
9 -58 -102 -32 -226 66 -317 71 -65 121 -83 218 -78 93 5 140 25 199 85 57 56
77 104 98 232 121 739 -51 1518 -472 2141 -167 247 -408 514 -505 560 -53 24
-148 35 -199 21z"/>
<path d="M2944 5926 c-135 -31 -258 -128 -339 -267 l-47 -79 -72 0 c-141 0
-251 -46 -352 -145 -109 -108 -163 -272 -136 -417 24 -133 123 -278 227 -334
36 -19 36 -19 29 -69 -12 -89 -8 -208 10 -270 59 -203 228 -343 446 -370 52
-6 79 1 445 120 215 70 478 155 585 189 l195 63 0 77 0 77 -291 94 c-212 69
-296 101 -313 119 -45 47 -36 137 16 171 43 28 99 20 283 -40 96 -32 221 -72
276 -90 l101 -32 45 62 45 61 -185 255 c-525 722 -527 723 -575 756 -107 72
-262 99 -393 69z"/>
<path d="M5830 5929 c-25 -5 -82 -27 -127 -49 l-82 -41 -329 -452 c-180 -249
-343 -473 -361 -499 l-33 -47 31 -38 c17 -21 39 -48 48 -59 l18 -22 270 90
c288 95 339 104 383 71 61 -45 60 -146 -1 -183 -18 -11 -144 -56 -282 -100
-137 -45 -263 -86 -278 -92 -27 -11 -28 -12 -25 -86 l3 -76 580 -189 580 -188
80 10 c205 27 379 181 431 382 13 50 15 90 11 184 l-6 120 44 28 c94 60 179
180 204 288 16 66 13 189 -5 250 -34 116 -114 217 -225 284 -70 43 -153 65
-246 65 -68 0 -74 2 -90 28 -105 171 -153 221 -256 272 -117 57 -219 72 -337
49z"/>
<path d="M4372 4811 c-107 -40 -178 -105 -229 -210 -25 -50 -28 -67 -28 -161
0 -95 3 -111 28 -162 76 -154 222 -239 389 -225 214 18 375 211 354 427 -12
131 -102 256 -226 314 -85 40 -207 47 -288 17z"/>
<path d="M3835 4135 c-108 -36 -709 -232 -945 -307 -56 -18 -75 -31 -140 -97
-65 -65 -80 -88 -110 -161 -31 -79 -34 -93 -33 -190 1 -155 39 -245 160 -380
l50 -54 -25 -71 c-20 -56 -25 -87 -24 -160 2 -186 90 -332 252 -418 88 -47
154 -61 259 -54 104 6 175 32 255 92 l59 44 51 -21 c135 -56 180 -67 266 -68
47 0 111 7 143 15 133 34 258 139 321 267 l36 73 -2 619 -3 619 -55 15 c-30 8
-62 15 -71 16 -11 1 -79 -84 -192 -239 -96 -133 -187 -247 -202 -255 -34 -18
-89 -16 -121 5 -39 25 -59 81 -45 125 6 19 90 143 186 274 l174 240 -25 29
c-14 16 -31 42 -40 58 -8 16 -22 29 -32 28 -9 0 -75 -20 -147 -44z"/>
<path d="M4961 4120 l-41 -59 162 -223 c194 -268 198 -275 198 -315 0 -63 -33
-103 -95 -117 -61 -13 -89 14 -275 269 -134 183 -181 239 -196 238 -10 -1 -43
-8 -71 -15 l-53 -12 0 -626 0 -627 31 -62 c45 -91 136 -183 220 -225 91 -45
163 -60 274 -53 75 4 106 11 190 45 l100 41 25 -23 c36 -34 127 -82 189 -100
62 -18 174 -21 240 -5 181 41 325 193 362 380 15 78 6 190 -20 257 l-21 53 69
84 c114 138 147 230 139 389 -6 109 -31 180 -92 264 -79 106 -107 123 -346
201 -690 224 -931 301 -939 301 -5 0 -28 -27 -50 -60z"/>
<path d="M1983 3570 c-92 -22 -181 -110 -209 -209 -25 -82 -15 -150 36 -251
155 -309 329 -549 575 -795 446 -445 1011 -733 1636 -835 100 -16 136 -18 179
-10 224 42 323 308 182 487 -107 134 -298 135 -387 3 -58 -87 -43 -216 32
-286 27 -25 24 -45 -5 -38 -9 2 -71 15 -137 30 -371 81 -710 230 -1035 457
-284 198 -543 470 -743 779 -71 108 -141 237 -134 245 4 3 23 -3 44 -13 50
-25 155 -25 202 0 75 40 120 118 121 206 0 102 -81 200 -190 230 -40 11 -120
11 -167 0z"/>
<path d="M6835 3567 c-92 -37 -157 -101 -176 -171 -20 -74 8 -172 63 -223 13
-12 45 -32 72 -44 57 -25 131 -22 186 6 17 9 35 14 38 10 17 -17 -152 -293
-284 -461 -292 -376 -741 -713 -1164 -877 -212 -82 -432 -145 -567 -163 -58
-7 -66 1 -32 32 31 28 59 89 66 143 10 85 -49 184 -132 222 -122 56 -266 -11
-330 -154 -24 -53 -27 -69 -23 -136 9 -148 102 -253 249 -281 54 -10 152 2
339 41 556 118 1081 408 1487 820 241 245 390 451 544 753 58 112 61 123 62
190 0 121 -61 220 -172 277 -52 27 -178 36 -226 16z"/>
<path d="M1365 3331 c-165 -53 -316 -106 -335 -116 -124 -64 -242 -171 -318
-288 -92 -141 -134 -287 -134 -467 1 -202 46 -326 206 -558 178 -258 312 -419
531 -637 570 -569 1263 -969 2035 -1177 123 -33 341 -33 450 1 273 84 490 293
577 555 27 81 27 82 31 439 2 196 2 357 0 357 -2 0 -25 -19 -50 -43 -61 -56
-136 -94 -228 -113 -86 -18 -118 -15 -305 26 -793 175 -1453 607 -1932 1265
-101 140 -224 349 -260 445 -43 113 -30 281 29 378 11 17 16 32 11 32 -4 -1
-143 -45 -308 -99z"/>
<path d="M7339 3393 c51 -102 65 -240 35 -344 -9 -30 -36 -92 -61 -139 -60
-112 -234 -373 -319 -480 -99 -124 -403 -424 -519 -511 -422 -321 -837 -511
-1345 -618 -151 -32 -179 -34 -258 -17 -100 21 -172 55 -232 112 l-51 48 3
-365 3 -364 27 -77 c79 -223 243 -407 442 -497 118 -53 193 -72 316 -78 139
-7 211 6 444 78 974 304 1801 913 2384 1755 155 225 199 335 209 529 6 118 -9
224 -48 334 -75 216 -295 431 -509 499 -36 11 -170 55 -298 96 -128 42 -235
76 -238 76 -2 0 4 -17 15 -37z"/>
</g>
</svg>
